<svg width="1600" height="900" viewBox="0 0 1600 900" fill="none" xmlns="http://www.w3.org/2000/svg">
  <defs>
    <linearGradient id="bg" x1="800" y1="0" x2="800" y2="900" gradientUnits="userSpaceOnUse">
      <stop stop-color="#182878"/>
      <stop offset="0.42" stop-color="#122468"/>
      <stop offset="1" stop-color="#081533"/>
    </linearGradient>
    <radialGradient id="blueA" cx="0" cy="0" r="1" gradientUnits="userSpaceOnUse" gradientTransform="translate(828 676) rotate(90) scale(242 980)">
      <stop stop-color="#C8F8FF" stop-opacity="1"/>
      <stop offset="0.24" stop-color="#84D9FF" stop-opacity="0.98"/>
      <stop offset="0.48" stop-color="#3EA0FF" stop-opacity="0.56"/>
      <stop offset="1" stop-color="#3EA0FF" stop-opacity="0"/>
    </radialGradient>
    <radialGradient id="blueB" cx="0" cy="0" r="1" gradientUnits="userSpaceOnUse" gradientTransform="translate(1246 600) rotate(180) scale(448 210)">
      <stop stop-color="#4AAFFF" stop-opacity="0.54"/>
      <stop offset="1" stop-color="#4AAFFF" stop-opacity="0"/>
    </radialGradient>
    <radialGradient id="redGlow" cx="0" cy="0" r="1" gradientUnits="userSpaceOnUse" gradientTransform="translate(1296 322) rotate(135) scale(292 224)">
      <stop stop-color="#FF6C90" stop-opacity="0.76"/>
      <stop offset="1" stop-color="#FF6C90" stop-opacity="0"/>
    </radialGradient>
    <linearGradient id="lineBlue" x1="0" y1="0" x2="1" y2="1">
      <stop stop-color="#4CB4FF" stop-opacity="0"/>
      <stop offset="0.52" stop-color="#D5FBFF" stop-opacity="1"/>
      <stop offset="1" stop-color="#4CB4FF" stop-opacity="0"/>
    </linearGradient>
    <linearGradient id="lineBlueSoft" x1="0" y1="0" x2="1" y2="1">
      <stop stop-color="#9DE8FF" stop-opacity="0"/>
      <stop offset="0.52" stop-color="#82C8FF" stop-opacity="0.9"/>
      <stop offset="1" stop-color="#9DE8FF" stop-opacity="0"/>
    </linearGradient>
    <linearGradient id="lineRed" x1="0" y1="0" x2="1" y2="1">
      <stop stop-color="#FF6488" stop-opacity="0"/>
      <stop offset="0.55" stop-color="#FF6488" stop-opacity="0.92"/>
      <stop offset="1" stop-color="#FF6488" stop-opacity="0"/>
    </linearGradient>
  </defs>
  <rect width="1600" height="900" fill="url(#bg)"/>
  <rect width="1600" height="900" fill="url(#blueA)"/>
  <rect width="1600" height="900" fill="url(#blueB)"/>
  <rect width="1600" height="900" fill="url(#redGlow)"/>
  <g opacity="0.5">
    <path d="M0 710H1600" stroke="url(#lineBlue)" stroke-width="3"/>
    <path d="M0 760H1600" stroke="url(#lineBlueSoft)" stroke-width="1.8"/>
    <path d="M0 808H1600" stroke="url(#lineBlueSoft)" stroke-width="1.2"/>
    <path d="M0 854H1600" stroke="url(#lineBlueSoft)" stroke-width="1"/>
  </g>
  <g opacity="0.38">
    <path d="M0 900L516 636" stroke="url(#lineBlueSoft)" stroke-width="1.2"/>
    <path d="M224 900L622 582" stroke="url(#lineBlueSoft)" stroke-width="1.8"/>
    <path d="M395 900L766 600" stroke="url(#lineBlueSoft)" stroke-width="1.3"/>
    <path d="M866 900L1055 654" stroke="url(#lineBlueSoft)" stroke-width="1.7"/>
    <path d="M1028 900L1188 696" stroke="url(#lineBlueSoft)" stroke-width="1.15"/>
  </g>
  <g opacity="0.84">
    <path d="M10 648C290 648 528 642 782 642C1038 642 1310 642 1600 642" stroke="url(#lineBlue)" stroke-width="10"/>
    <path d="M978 646C1128 604 1293 536 1488 430" stroke="url(#lineBlue)" stroke-width="4.5"/>
    <path d="M1120 652C1260 632 1392 612 1546 578" stroke="url(#lineRed)" stroke-width="3.2"/>
    <path d="M92 536C198 548 326 566 482 574" stroke="url(#lineBlueSoft)" stroke-width="3.1"/>
    <path d="M1128 214C1238 238 1368 274 1506 340" stroke="url(#lineRed)" stroke-width="2.5"/>
    <path d="M120 248C210 268 300 306 392 360" stroke="url(#lineBlueSoft)" stroke-width="2.5"/>
  </g>
  <g opacity="0.68">
    <circle cx="186" cy="232" r="1.6" fill="#B4F2FF"/>
    <circle cx="294" cy="186" r="2.4" fill="#E2FDFF"/>
    <circle cx="430" cy="138" r="1.9" fill="#B6E7FF"/>
    <circle cx="1046" cy="146" r="1.5" fill="#DBF8FF"/>
    <circle cx="1188" cy="244" r="2.2" fill="#DBF8FF"/>
    <circle cx="1372" cy="198" r="2.5" fill="#FFE0E8"/>
  </g>
</svg>
